<?xml version="1.0" encoding="utf-8"?>
<!-- Generator: Adobe Illustrator 27.8.1, SVG Export Plug-In . SVG Version: 6.00 Build 0)  -->
<svg version="1.0" id="Слой_1" xmlns="http://www.w3.org/2000/svg" xmlns:xlink="http://www.w3.org/1999/xlink" x="0px" y="0px"
	 viewBox="0 0 32 32" enable-background="new 0 0 32 32" xml:space="preserve">
<path fill="#6339F5" d="M26,32H6c-3.31,0-6-2.69-6-6V6c0-3.31,2.69-6,6-6h20c3.31,0,6,2.69,6,6v20C32,29.31,29.31,32,26,32z"/>
<text transform="matrix(1 0 0 1 5.6138 21.791)" display="none" fill="#FFFFFF" font-family="'MyriadPro-Bold'" font-size="36px">o</text>
<text transform="matrix(1 0 0 1 3.8828 26.791)" fill="#FFFFFF" font-family="'MyriadPro-Bold'" font-size="42px">o</text>
<g>
	<g>
		<path d="M28.93,10.02c-3.51-3.13-7.67-5.64-12.49-5.8c-5.1-0.17-9.64,2.59-13.23,5.97c-1.18,1.11-1.12,3.12,0,4.24
			c1.18,1.18,3.06,1.11,4.24,0c1.46-1.38,3-2.52,4.82-3.39c0.4-0.19,0.08-0.05,0.32-0.13c0.2-0.07,0.39-0.14,0.59-0.21
			c0.38-0.12,0.77-0.23,1.17-0.32c0.24-0.05,0.48-0.1,0.73-0.14c-0.32,0.05-0.15,0.02,0.07,0c0.43-0.02,0.86-0.04,1.29-0.03
			c0.19,0.01,0.38,0.02,0.57,0.03c0.06,0,0.62,0.08,0.31,0.03c-0.32-0.05,0.26,0.06,0.31,0.07c0.24,0.05,0.47,0.1,0.7,0.17
			c0.38,0.1,0.75,0.22,1.12,0.35c0.19,0.07,0.37,0.14,0.56,0.21c-0.42-0.18,0.18,0.1,0.25,0.14c1.75,0.86,3.08,1.85,4.42,3.04
			c1.21,1.08,3.05,1.19,4.24,0C30.03,13.17,30.14,11.11,28.93,10.02L28.93,10.02z"/>
	</g>
</g>
<path fill="#3D2DB2" d="M16,8c6.57,0,12.25,4.73,15.08,10.18C31.66,17.26,32,16.17,32,15V6c0-3.31-2.69-6-6-6H6C2.69,0,0,2.69,0,6v9
	c0,1.17,0.34,2.26,0.92,3.18C3.75,12.73,9.43,8,16,8z"/>
<text transform="matrix(1 0 0 1 -4.882812e-04 21.791)" display="none" fill="#FFFFFF" font-family="'MyriadPro-Bold'" font-size="16.4443px">OSH</text>
</svg>
