<?xml version="1.0" encoding="utf-8"?>
<!-- Generator: Adobe Illustrator 21.0.0, SVG Export Plug-In . SVG Version: 6.00 Build 0)  -->
<svg version="1.1" id="Layer_1" xmlns="http://www.w3.org/2000/svg" xmlns:xlink="http://www.w3.org/1999/xlink" x="0px" y="0px"
	 viewBox="0 0 64 64" style="enable-background:new 0 0 64 64;" xml:space="preserve">
<style type="text/css">
	.st0{fill:#455A64;stroke:#37474F;stroke-linecap:round;stroke-linejoin:round;stroke-miterlimit:10;}
	.st1{fill:#78909C;stroke:#37474F;stroke-linecap:round;stroke-linejoin:round;stroke-miterlimit:10;}
	.st2{fill:#ECEFF1;stroke:#37474F;stroke-linecap:round;stroke-linejoin:round;stroke-miterlimit:10;}
	.st3{fill:none;stroke:#FFFFFF;stroke-linecap:round;stroke-linejoin:round;stroke-miterlimit:10;}
	.st4{fill:#FFCA28;stroke:#37474F;stroke-linecap:round;stroke-linejoin:round;stroke-miterlimit:10;}
	.st5{fill:none;stroke:#37474F;stroke-linecap:round;stroke-linejoin:round;stroke-miterlimit:10;}
	.st6{fill:#B0BEC5;}
	.st7{fill:#37474F;}
	.st8{fill:#455A64;}
	.st9{fill:#9CCC65;stroke:#37474F;stroke-linecap:round;stroke-linejoin:round;stroke-miterlimit:10;}
	.st10{fill:none;stroke:#C5E1A5;stroke-linecap:round;stroke-linejoin:round;stroke-miterlimit:10;}
	.st11{fill:#26C6DA;stroke:#37474F;stroke-linecap:round;stroke-linejoin:round;stroke-miterlimit:10;}
	.st12{fill:#EF5350;stroke:#37474F;stroke-linecap:round;stroke-linejoin:round;stroke-miterlimit:10;}
	.st13{fill:#B0BEC5;stroke:#37474F;stroke-linecap:round;stroke-linejoin:round;stroke-miterlimit:10;}
	.st14{fill:none;stroke:#EF9A9A;stroke-linecap:round;stroke-linejoin:round;stroke-miterlimit:10;}
	.st15{fill:none;stroke:#FFE082;stroke-linecap:round;stroke-linejoin:round;stroke-miterlimit:10;}
	.st16{fill:#D32F2F;stroke:#37474F;stroke-linecap:round;stroke-linejoin:round;stroke-miterlimit:10;}
	.st17{fill:#0097A7;stroke:#37474F;stroke-linecap:round;stroke-linejoin:round;stroke-miterlimit:10;}
	.st18{fill:#689F38;stroke:#37474F;stroke-linecap:round;stroke-linejoin:round;stroke-miterlimit:10;}
	.st19{fill:#FFA000;stroke:#37474F;stroke-linecap:round;stroke-linejoin:round;stroke-miterlimit:10;}
	.st20{fill:#FFA000;}
	.st21{fill:#FF6F00;}
	.st22{fill:#D32F2F;}
	.st23{fill:#0097A7;}
	.st24{fill:none;stroke:#80DEEA;stroke-linecap:round;stroke-linejoin:round;stroke-miterlimit:10;}
	.st25{fill:#689F38;}
	.st26{fill:none;stroke:#B0BEC5;stroke-linecap:round;stroke-linejoin:round;stroke-miterlimit:10;}
	.st27{fill:#78909C;stroke:#37474F;stroke-miterlimit:10;}
	.st28{fill:#78909C;}
	.st29{fill:#B71C1C;}
	.st30{fill:#F57F17;}
	.st31{fill:#006064;}
	.st32{fill:#26A69A;stroke:#37474F;stroke-linecap:round;stroke-linejoin:round;stroke-miterlimit:10;}
</style>
<g>
	<path class="st0" d="M45,63.5H7c-2.8,0-5-2.2-5-5v-42c0-2.8,2.2-5,5-5h38c2.8,0,5,2.2,5,5v42C50,61.3,47.8,63.5,45,63.5z"/>
	<path class="st1" d="M45,59.5H7c-2.8,0-5-2.2-5-5v-42c0-2.8,2.2-5,5-5h38c2.8,0,5,2.2,5,5v42C50,57.3,47.8,59.5,45,59.5z"/>
	<path class="st2" d="M43.5,55.5h-35C7.1,55.5,6,54.4,6,53V14c0-1.4,1.1-2.5,2.5-2.5h35c1.4,0,2.5,1.1,2.5,2.5v39
		C46,54.4,44.9,55.5,43.5,55.5z"/>
	<path class="st3" d="M8,18v-4c0-0.3,0.2-0.5,0.5-0.5h4"/>
	<path class="st4" d="M31,5.5c0-2.8-2.2-5-5-5s-5,2.2-5,5h-3c-0.6,0-1,0.4-1,1v6c0,0.6,0.4,1,1,1h16c0.6,0,1-0.4,1-1v-6
		c0-0.6-0.4-1-1-1H31z M26,7.5c-1.1,0-2-0.9-2-2c0-1.1,0.9-2,2-2s2,0.9,2,2C28,6.6,27.1,7.5,26,7.5z"/>
	<line class="st5" x1="10" y1="25" x2="21" y2="25"/>
	<line class="st5" x1="10" y1="19.1" x2="42" y2="19.1"/>
	<rect x="25.9" y="23" class="st5" width="16" height="4"/>
	<line class="st5" x1="10" y1="33" x2="21" y2="33"/>
	<rect x="25.9" y="31" class="st5" width="16" height="4"/>
	<g>
		<path class="st6" d="M42,36.5c-1.5,0-2.8,0.9-3.5,2.1c-0.7,0.2-1.3,0.5-1.8,0.9H22c-0.5,0-1,0.2-1.3,0.5H16c-0.4,0-0.7,0.1-1,0.3
			l-6,3.5c-0.6,0.4-1,1-1,1.7s0.4,1.4,1,1.7l3.5,2l0.5,0.3h0l2,1.2c0.3,0.2,0.7,0.3,1,0.3h4.7c0.4,0.3,0.8,0.5,1.3,0.5h14.7
			c0.8,0.6,1.7,1,2.8,1h6v-16H42z"/>
		<rect x="46.5" y="36.5" class="st8" width="3" height="16"/>
	</g>
	<g>
		<path class="st12" d="M62,45.5L62,45.5c0,2.2-1.8,4-4,4H22v-8h36C60.2,41.5,62,43.3,62,45.5z"/>
		<polygon class="st2" points="22,42 22,49 16,49 10,45.5 16,42 		"/>
		<path class="st1" d="M40,40.5L40,40.5c0-1.1,0.9-2,2-2h10c1.1,0,2,0.9,2,2v0H40z"/>
		<path class="st1" d="M53.5,50.5h-14c-1.4,0-2.5-1.1-2.5-2.5v-5c0-1.4,1.1-2.5,2.5-2.5h14c1.4,0,2.5,1.1,2.5,2.5v5
			C56,49.4,54.9,50.5,53.5,50.5z"/>
		<polygon class="st1" points="14,43.2 10,45.5 14,47.8 		"/>
	</g>
</g>
</svg>
