<?xml version="1.0" encoding="utf-8"?>
<!-- Generator: Adobe Illustrator 27.8.1, SVG Export Plug-In . SVG Version: 6.00 Build 0)  -->
<svg version="1.1" id="Слой_1" xmlns="http://www.w3.org/2000/svg" xmlns:xlink="http://www.w3.org/1999/xlink" x="0px" y="0px"
	 viewBox="0 0 32 32" style="enable-background:new 0 0 32 32;" xml:space="preserve">
<style type="text/css">
	.st0{fill:#4696EC;}
</style>
<g>
	<g>
		<g id="r8h">
			<g>
				<g>
					<g>
						<path class="st0" d="M2.8,22.1l7.6,0C7,19,6.8,13.7,9.9,10.4s8.3-3.6,11.7-0.5s3.6,8.3,0.5,11.7c-0.1,0.2-0.3,0.3-0.5,0.5
							l5.5,0c1-1.9,1.6-3.9,1.6-6.1c0-0.3,0.2-0.6,0.6-0.6s0.6,0.2,0.6,0.6c0,2.1-0.5,4.2-1.4,6.1l0.8,0c0.5,0,1,0.1,1.5,0.3
							c3.5-8.1-0.2-17.5-8.3-21S4.8,1.5,1.3,9.6c-1.8,4.1-1.8,8.7,0,12.7C1.8,22.2,2.3,22.1,2.8,22.1z M16,2.2
							c0.3,0,0.6,0.2,0.6,0.6c0,0.3-0.2,0.6-0.6,0.6C9,3.3,3.3,9,3.3,16c0,0.3-0.2,0.6-0.6,0.6c-0.3,0-0.6-0.2-0.6-0.6
							C2.2,8.4,8.4,2.2,16,2.2z"/>
						<path class="st0" d="M29.2,23.2l-26.4,0C1.2,23.2,0,24.4,0,26l0,3.3C0,30.8,1.2,32,2.8,32l26.4,0c1.5,0,2.8-1.2,2.8-2.8l0-3.3
							C32,24.4,30.7,23.2,29.2,23.2z M29.2,28.7c-0.6,0-1.1-0.3-1.4-0.7c-0.2-0.3-0.4-0.4-0.6-0.4c-0.3,0-0.4,0.1-0.6,0.4
							c-0.6,0.8-1.7,1-2.4,0.4c-0.2-0.1-0.3-0.2-0.4-0.4c-0.2-0.3-0.4-0.4-0.6-0.4c-0.3,0-0.4,0.1-0.6,0.4c-0.6,0.8-1.7,1-2.4,0.4
							c-0.2-0.1-0.3-0.2-0.4-0.4c-0.2-0.3-0.4-0.4-0.6-0.4c-0.3,0-0.4,0.1-0.6,0.4c-0.6,0.8-1.7,1-2.4,0.4c-0.2-0.1-0.3-0.2-0.4-0.4
							c-0.2-0.3-0.4-0.4-0.6-0.4c-0.3,0-0.4,0.1-0.6,0.4c-0.6,0.8-1.7,1-2.4,0.4c-0.2-0.1-0.3-0.2-0.4-0.4c-0.2-0.3-0.4-0.4-0.6-0.4
							c-0.3,0-0.4,0.1-0.6,0.4c-0.6,0.8-1.7,1-2.4,0.4c-0.2-0.1-0.3-0.2-0.4-0.4c-0.2-0.3-0.4-0.4-0.6-0.4c-0.3,0-0.4,0.1-0.6,0.4
							c-0.3,0.4-0.9,0.7-1.4,0.7c-0.6,0-1.1-0.3-1.4-0.7c-0.2-0.3-0.4-0.4-0.6-0.4c-0.3,0-0.6-0.2-0.6-0.6c0-0.3,0.2-0.6,0.6-0.6
							c0.6,0,1.1,0.3,1.4,0.7c0.2,0.3,0.4,0.4,0.6,0.4c0.3,0,0.4-0.1,0.6-0.4c0.6-0.8,1.7-1,2.4-0.4c0.2,0.1,0.3,0.2,0.4,0.4
							c0.2,0.3,0.4,0.4,0.6,0.4s0.4-0.1,0.6-0.4c0.6-0.8,1.7-1,2.4-0.4c0.2,0.1,0.3,0.2,0.4,0.4c0.2,0.3,0.4,0.4,0.6,0.4
							c0.3,0,0.4-0.1,0.6-0.4c0.6-0.8,1.7-1,2.4-0.4c0.2,0.1,0.3,0.2,0.4,0.4c0.2,0.3,0.4,0.4,0.6,0.4s0.4-0.1,0.6-0.4
							c0.6-0.8,1.7-1,2.4-0.4c0.2,0.1,0.3,0.2,0.4,0.4c0.2,0.3,0.4,0.4,0.6,0.4c0.3,0,0.4-0.1,0.6-0.4c0.6-0.8,1.7-1,2.4-0.4
							c0.2,0.1,0.3,0.2,0.4,0.4c0.2,0.3,0.4,0.4,0.6,0.4c0.3,0,0.4-0.1,0.6-0.4c0.6-0.8,1.7-1,2.5-0.4c0.2,0.1,0.3,0.2,0.4,0.4
							c0.2,0.3,0.4,0.4,0.6,0.4c0.3,0,0.6,0.2,0.6,0.6C29.7,28.4,29.5,28.7,29.2,28.7z"/>
					</g>
				</g>
			</g>
		</g>
	</g>
</g>
</svg>
